<?xml version="1.0" standalone="no"?>
<!DOCTYPE svg PUBLIC "-//W3C//DTD SVG 20010904//EN"
 "http://www.w3.org/TR/2001/REC-SVG-20010904/DTD/svg10.dtd">
<svg version="1.0" xmlns="http://www.w3.org/2000/svg"
 width="384.000000pt" height="384.000000pt" viewBox="0 0 384.000000 384.000000"
 preserveAspectRatio="xMidYMid meet">
<metadata>
Created by potrace 1.14, written by Peter Selinger 2001-2017
</metadata>
<g transform="translate(0.000000,384.000000) scale(0.100000,-0.100000)"
fill="#000000" stroke="none">
<path d="M294 3831 c-87 -21 -182 -91 -233 -169 -65 -101 -61 10 -61 -1732 0
-1290 3 -1596 14 -1642 25 -107 104 -201 216 -256 l55 -27 1605 -3 c1105 -2
1621 1 1656 8 81 17 175 83 223 156 22 34 46 74 53 90 18 40 25 3175 8 3276
-20 117 -99 216 -220 276 l-55 27 -1615 2 c-888 0 -1629 -2 -1646 -6z"/>
</g>
</svg>
